{
	"asset":{
		"generator":"Khronos glTF Blender I/O v4.5.47",
		"version":"2.0"
	},
	"scene":0,
	"scenes":[
		{
			"name":"Scene",
			"nodes":[
				0
			]
		}
	],
	"nodes":[
		{
			"mesh":0,
			"name":"SM_Keyboard",
			"rotation":[
				0.7071068286895752,
				0,
				0,
				0.7071068286895752
			],
			"scale":[
				0.009999999776482582,
				0.009999999776482582,
				0.009999999776482582
			],
			"translation":[
				-0.021781735122203827,
				0.00941307470202446,
				-0.01241583377122879
			]
		}
	],
	"materials":[
		{
			"doubleSided":true,
			"name":"Omie_ComputerSetup_PBR",
			"normalTexture":{
				"index":0
			},
			"pbrMetallicRoughness":{
				"baseColorTexture":{
					"index":1
				},
				"metallicRoughnessTexture":{
					"index":2
				}
			}
		}
	],
	"meshes":[
		{
			"name":"Cube.007",
			"primitives":[
				{
					"attributes":{
						"POSITION":0,
						"NORMAL":1,
						"TEXCOORD_0":2
					},
					"indices":3,
					"material":0
				}
			]
		}
	],
	"textures":[
		{
			"sampler":0,
			"source":0
		},
		{
			"sampler":0,
			"source":1
		},
		{
			"sampler":0,
			"source":2
		}
	],
	"images":[
		{
			"mimeType":"image/png",
			"name":"Mat_ComputerSetup_Normal",
			"uri":"Mat_ComputerSetup_Normal.png"
		},
		{
			"mimeType":"image/png",
			"name":"Mat_ComputerSetup_BaseColor",
			"uri":"Mat_ComputerSetup_BaseColor.png"
		},
		{
			"mimeType":"image/png",
			"name":"Mat_ComputerSetup_Metallic.png-Mat_ComputerSetup_Roughness.png",
			"uri":"Mat_ComputerSetup_Metallic.png-Mat_ComputerSetup_Roughness.png.png"
		}
	],
	"accessors":[
		{
			"bufferView":0,
			"componentType":5126,
			"count":10076,
			"max":[
				26.429473876953125,
				8.51079273223877,
				0.941307008266449
			],
			"min":[
				-22.07312774658203,
				-6.027625560760498,
				-1.4069621562957764
			],
			"type":"VEC3"
		},
		{
			"bufferView":1,
			"componentType":5126,
			"count":10076,
			"type":"VEC3"
		},
		{
			"bufferView":2,
			"componentType":5126,
			"count":10076,
			"type":"VEC2"
		},
		{
			"bufferView":3,
			"componentType":5123,
			"count":23712,
			"type":"SCALAR"
		}
	],
	"bufferViews":[
		{
			"buffer":0,
			"byteLength":120912,
			"byteOffset":0,
			"target":34962
		},
		{
			"buffer":0,
			"byteLength":120912,
			"byteOffset":120912,
			"target":34962
		},
		{
			"buffer":0,
			"byteLength":80608,
			"byteOffset":241824,
			"target":34962
		},
		{
			"buffer":0,
			"byteLength":47424,
			"byteOffset":322432,
			"target":34963
		}
	],
	"samplers":[
		{
			"magFilter":9729,
			"minFilter":9987
		}
	],
	"buffers":[
		{
			"byteLength":369856,
			"uri":"keyboard.bin"
		}
	]
}
