{
	"asset":{
		"generator":"Khronos glTF Blender I/O v4.5.47",
		"version":"2.0"
	},
	"scene":0,
	"scenes":[
		{
			"name":"Scene",
			"nodes":[
				0
			]
		}
	],
	"nodes":[
		{
			"mesh":0,
			"name":"SM_Monitor",
			"rotation":[
				0.7071068286895752,
				0,
				0,
				0.7071068286895752
			],
			"scale":[
				0.009999999776482582,
				0.009999999776482582,
				0.009999999776482582
			],
			"translation":[
				-0.0011092126369476318,
				0,
				-0.0004656873643398285
			]
		}
	],
	"materials":[
		{
			"doubleSided":true,
			"name":"Omie_ComputerSetup_PBR",
			"normalTexture":{
				"index":0
			},
			"pbrMetallicRoughness":{
				"baseColorTexture":{
					"index":1
				},
				"metallicRoughnessTexture":{
					"index":2
				}
			}
		}
	],
	"meshes":[
		{
			"name":"Plane.043",
			"primitives":[
				{
					"attributes":{
						"POSITION":0,
						"NORMAL":1,
						"TEXCOORD_0":2
					},
					"indices":3,
					"material":0
				}
			]
		}
	],
	"textures":[
		{
			"sampler":0,
			"source":0
		},
		{
			"sampler":0,
			"source":1
		},
		{
			"sampler":0,
			"source":2
		}
	],
	"images":[
		{
			"mimeType":"image/png",
			"name":"Mat_ComputerSetup_Normal",
			"uri":"Mat_ComputerSetup_Normal.png"
		},
		{
			"mimeType":"image/png",
			"name":"Mat_ComputerSetup_BaseColor",
			"uri":"Mat_ComputerSetup_BaseColor.png"
		},
		{
			"mimeType":"image/png",
			"name":"Mat_ComputerSetup_Metallic.png-Mat_ComputerSetup_Roughness.png",
			"uri":"Mat_ComputerSetup_Metallic.png-Mat_ComputerSetup_Roughness.png.png"
		}
	],
	"accessors":[
		{
			"bufferView":0,
			"componentType":5126,
			"count":458,
			"max":[
				37.36267852783203,
				7.299363613128662,
				0
			],
			"min":[
				-37.14083480834961,
				-7.2062225341796875,
				-51.23703384399414
			],
			"type":"VEC3"
		},
		{
			"bufferView":1,
			"componentType":5126,
			"count":458,
			"type":"VEC3"
		},
		{
			"bufferView":2,
			"componentType":5126,
			"count":458,
			"type":"VEC2"
		},
		{
			"bufferView":3,
			"componentType":5123,
			"count":936,
			"type":"SCALAR"
		}
	],
	"bufferViews":[
		{
			"buffer":0,
			"byteLength":5496,
			"byteOffset":0,
			"target":34962
		},
		{
			"buffer":0,
			"byteLength":5496,
			"byteOffset":5496,
			"target":34962
		},
		{
			"buffer":0,
			"byteLength":3664,
			"byteOffset":10992,
			"target":34962
		},
		{
			"buffer":0,
			"byteLength":1872,
			"byteOffset":14656,
			"target":34963
		}
	],
	"samplers":[
		{
			"magFilter":9729,
			"minFilter":9987
		}
	],
	"buffers":[
		{
			"byteLength":16528,
			"uri":"monitor.bin"
		}
	]
}
