{
	"asset":{
		"generator":"Khronos glTF Blender I/O v4.5.47",
		"version":"2.0"
	},
	"scene":0,
	"scenes":[
		{
			"name":"Scene",
			"nodes":[
				0
			]
		}
	],
	"nodes":[
		{
			"mesh":0,
			"name":"SM_Computer",
			"rotation":[
				0.7071068286895752,
				0,
				0,
				0.7071068286895752
			],
			"scale":[
				0.009999999776482582,
				0.009999999776482582,
				0.009999999776482582
			],
			"translation":[
				7.162615656852722e-05,
				0,
				0.0030679330229759216
			]
		}
	],
	"materials":[
		{
			"doubleSided":true,
			"name":"Omie_ComputerSetup_PBR",
			"normalTexture":{
				"index":0
			},
			"pbrMetallicRoughness":{
				"baseColorTexture":{
					"index":1
				},
				"metallicRoughnessTexture":{
					"index":2
				}
			}
		}
	],
	"meshes":[
		{
			"name":"Cube.021",
			"primitives":[
				{
					"attributes":{
						"POSITION":0,
						"NORMAL":1,
						"TEXCOORD_0":2
					},
					"indices":3,
					"material":0
				}
			]
		}
	],
	"textures":[
		{
			"sampler":0,
			"source":0
		},
		{
			"sampler":0,
			"source":1
		},
		{
			"sampler":0,
			"source":2
		}
	],
	"images":[
		{
			"mimeType":"image/png",
			"name":"Mat_ComputerSetup_Normal",
			"uri":"Mat_ComputerSetup_Normal.png"
		},
		{
			"mimeType":"image/png",
			"name":"Mat_ComputerSetup_BaseColor",
			"uri":"Mat_ComputerSetup_BaseColor.png"
		},
		{
			"mimeType":"image/png",
			"name":"Mat_ComputerSetup_Metallic.png-Mat_ComputerSetup_Roughness.png",
			"uri":"Mat_ComputerSetup_Metallic.png-Mat_ComputerSetup_Roughness.png.png"
		}
	],
	"accessors":[
		{
			"bufferView":0,
			"componentType":5126,
			"count":8256,
			"max":[
				8.620380401611328,
				18.167922973632812,
				-1.2896489351987839e-06
			],
			"min":[
				-8.634705543518066,
				-18.781505584716797,
				-39.14497756958008
			],
			"type":"VEC3"
		},
		{
			"bufferView":1,
			"componentType":5126,
			"count":8256,
			"type":"VEC3"
		},
		{
			"bufferView":2,
			"componentType":5126,
			"count":8256,
			"type":"VEC2"
		},
		{
			"bufferView":3,
			"componentType":5123,
			"count":18120,
			"type":"SCALAR"
		}
	],
	"bufferViews":[
		{
			"buffer":0,
			"byteLength":99072,
			"byteOffset":0,
			"target":34962
		},
		{
			"buffer":0,
			"byteLength":99072,
			"byteOffset":99072,
			"target":34962
		},
		{
			"buffer":0,
			"byteLength":66048,
			"byteOffset":198144,
			"target":34962
		},
		{
			"buffer":0,
			"byteLength":36240,
			"byteOffset":264192,
			"target":34963
		}
	],
	"samplers":[
		{
			"magFilter":9729,
			"minFilter":9987
		}
	],
	"buffers":[
		{
			"byteLength":300432,
			"uri":"computer.bin"
		}
	]
}
