{
	"asset":{
		"generator":"Khronos glTF Blender I/O v4.5.47",
		"version":"2.0"
	},
	"scene":0,
	"scenes":[
		{
			"name":"Scene",
			"nodes":[
				0
			]
		}
	],
	"nodes":[
		{
			"mesh":0,
			"name":"SM_Mouse",
			"rotation":[
				0.7071068286895752,
				0,
				0,
				0.7071068286895752
			],
			"scale":[
				0.009999999776482582,
				0.009999999776482582,
				0.009999999776482582
			],
			"translation":[
				0.00021185725927352905,
				0,
				0.001059122383594513
			]
		}
	],
	"materials":[
		{
			"doubleSided":true,
			"name":"Omie_ComputerSetup_PBR",
			"normalTexture":{
				"index":0
			},
			"pbrMetallicRoughness":{
				"baseColorTexture":{
					"index":1
				},
				"metallicRoughnessTexture":{
					"index":2
				}
			}
		}
	],
	"meshes":[
		{
			"name":"Plane.043",
			"primitives":[
				{
					"attributes":{
						"POSITION":0,
						"NORMAL":1,
						"TEXCOORD_0":2
					},
					"indices":3,
					"material":0
				}
			]
		}
	],
	"textures":[
		{
			"sampler":0,
			"source":0
		},
		{
			"sampler":0,
			"source":1
		},
		{
			"sampler":0,
			"source":2
		}
	],
	"images":[
		{
			"mimeType":"image/png",
			"name":"Mat_ComputerSetup_Normal",
			"uri":"Mat_ComputerSetup_Normal.png"
		},
		{
			"mimeType":"image/png",
			"name":"Mat_ComputerSetup_BaseColor",
			"uri":"Mat_ComputerSetup_BaseColor.png"
		},
		{
			"mimeType":"image/png",
			"name":"Mat_ComputerSetup_Metallic.png-Mat_ComputerSetup_Roughness.png",
			"uri":"Mat_ComputerSetup_Metallic.png-Mat_ComputerSetup_Roughness.png.png"
		}
	],
	"accessors":[
		{
			"bufferView":0,
			"componentType":5126,
			"count":380,
			"max":[
				4.716517925262451,
				7.6743879318237305,
				-7.450580596923828e-07
			],
			"min":[
				-4.758889198303223,
				-7.886211395263672,
				-5.816771030426025
			],
			"type":"VEC3"
		},
		{
			"bufferView":1,
			"componentType":5126,
			"count":380,
			"type":"VEC3"
		},
		{
			"bufferView":2,
			"componentType":5126,
			"count":380,
			"type":"VEC2"
		},
		{
			"bufferView":3,
			"componentType":5123,
			"count":1404,
			"type":"SCALAR"
		}
	],
	"bufferViews":[
		{
			"buffer":0,
			"byteLength":4560,
			"byteOffset":0,
			"target":34962
		},
		{
			"buffer":0,
			"byteLength":4560,
			"byteOffset":4560,
			"target":34962
		},
		{
			"buffer":0,
			"byteLength":3040,
			"byteOffset":9120,
			"target":34962
		},
		{
			"buffer":0,
			"byteLength":2808,
			"byteOffset":12160,
			"target":34963
		}
	],
	"samplers":[
		{
			"magFilter":9729,
			"minFilter":9987
		}
	],
	"buffers":[
		{
			"byteLength":14968,
			"uri":"mouse.bin"
		}
	]
}
